# xmcd
#
# Track frame offsets: 
#        150
#        14627
#        29907
#        49390
#        69452
#        84637
#        99755
#        116402
#        127487
#        145355
#        163645
#        176755
#        195520
#        210760
#        226160
#        241052
#        258687
#        272002
#        288057
#        302107
#        314712
#
# Disc length: 4456 seconds
#
# Revision: 4
# Processed by: cddbd v1.5.2PL0 Copyright (c) Steve Scherf et al.
# Submitted via: ExactAudioCopy v0.99pb4
#
DISCID=36116615
DTITLE=Various Artist - Absolute Country
DYEAR=1993
DGENRE=Country
TTITLE0=Carlene Carter - Every Little Thing
TTITLE1=Billy Ray Cyrus - Achy Breaky Heart
TTITLE2=Trisha Yearwood feat. Don Henley - Walkaway Joe
TTITLE3=Dwight Yoakam - A Thousand Miles From Nowhere
TTITLE4=Kelly Willis - Whatever Way The Wind Blows
TTITLE5=Doug Supernaw - The Perfect Picture (To Fit My Frame Of Mind)
TTITLE6=Tanya Tucker feat. Delbert McClinton - Tell Me About It
TTITLE7=Alan Jackson - Chattahoochee
TTITLE8=Vince Gill - I Still Believe In You
TTITLE9=Maria McKee - Only Once
TTITLE10=Travis Tritt feat. Marty Stuart - A Hundred Years From Now
TTITLE11=Lorrie Morgan - I Guess You Had To Be There
TTITLE12=Radney Foster - Louisiana Blue
TTITLE13=Suzy Bogguss - Other Side Of The Hill
TTITLE14=Brooks and Dunn - Boot Scootin' Boogie
TTITLE15=Dolly Parton - Full Circle
TTITLE16=Tracy Byrd - Why
TTITLE17=Patty Loveless - Blame It On Your Heart
TTITLE18=McBride and The Ride - Love On The Loose, Heart On The Run
TTITLE19=George Strait - When Did You Stop Loving Me
TTITLE20=Nanci Griffith feat. John Prine - Speed Of The Sound Of Lonel
TTITLE20=iness
EXTD=EVACD 5014\n(P) and (C) 1993 EVA Records
EXTT0=
EXTT1=
EXTT2=
EXTT3=
EXTT4=
EXTT5=
EXTT6=
EXTT7=
EXTT8=
EXTT9=
EXTT10=
EXTT11=
EXTT12=
EXTT13=
EXTT14=
EXTT15=
EXTT16=
EXTT17=
EXTT18=
EXTT19=
EXTT20=
PLAYORDER=
